HIERARCHY
ROOT Hips
{
	OFFSET 0.00000 0.00000 0.00000
	CHANNELS 6 Xposition Yposition Zposition Zrotation Yrotation Xrotation 
	JOINT LHipJoint
	{
		OFFSET 0 0 0
		CHANNELS 3 Zrotation Yrotation Xrotation
		JOINT LeftHip
		{
			OFFSET 1.73240 -1.89999 0.57994
			CHANNELS 3 Zrotation Yrotation Xrotation
			JOINT LeftKnee
			{
				OFFSET 2.43106 -6.67930 0.00000
				CHANNELS 3 Zrotation Yrotation Xrotation
				JOINT LeftAnkle
				{
					OFFSET 2.78854 -7.66147 0.00000
					CHANNELS 3 Zrotation Yrotation Xrotation
					JOINT LeftToe
					{
						OFFSET 0.17314 -0.47571 2.01064
						CHANNELS 3 Zrotation Yrotation Xrotation
						End Site
						{
							OFFSET 0.00000 -0.00000 1.04147
						}
					}
				}
			}
		}
	}
	JOINT RHipJoint
	{
		OFFSET 0 0 0
		CHANNELS 3 Zrotation Yrotation Xrotation
		JOINT RightHip
		{
			OFFSET -1.57078 -1.89998 0.57994
			CHANNELS 3 Zrotation Yrotation Xrotation
			JOINT RightKnee
			{
				OFFSET -2.50166 -6.87326 0.00000
				CHANNELS 3 Zrotation Yrotation Xrotation
				JOINT RightAnkle
				{
					OFFSET -2.77304 -7.61886 0.00000
					CHANNELS 3 Zrotation Yrotation Xrotation
					JOINT RightToe
					{
						OFFSET -0.23513 -0.64602 2.11039
						CHANNELS 3 Zrotation Yrotation Xrotation
						End Site
						{
							OFFSET -0.00000 -0.00000 1.10597
						}
					}
				}
			}
		}
	}
	JOINT lowerback
	{
		OFFSET 0 0 0
		CHANNELS 3 Zrotation Yrotation Xrotation
		JOINT Chest
		{
			OFFSET -0.00908 2.00015 -0.35323
			CHANNELS 3 Zrotation Yrotation Xrotation
			JOINT Chest2
			{
				OFFSET 0.05647 2.02258 0.04270
				CHANNELS 3 Zrotation Yrotation Xrotation
				JOINT lowerneck
				{
					OFFSET 0 0 0
					CHANNELS 3 Zrotation Yrotation Xrotation
					JOINT Neck
					{
						OFFSET -0.02074 1.73711 0.13117
						CHANNELS 3 Zrotation Yrotation Xrotation
						JOINT Head
						{
							OFFSET -0.02359 1.73615 -0.24320
							CHANNELS 3 Zrotation Yrotation Xrotation
							End Site
							{
								OFFSET -0.00579 1.75982 -0.09688
							}
						}
					}
				}
				JOINT LeftCollar
				{
					OFFSET 0 0 0
					CHANNELS 3 Zrotation Yrotation Xrotation
					JOINT LeftShoulder
					{
						OFFSET 3.20537 1.11432 -0.27680
CHANNELS 3 Zrotation Xrotation Yrotation
						JOINT LeftElbow
						{
OFFSET 0 -5.059230 -0.000000
CHANNELS 3 Zrotation Xrotation Yrotation
							JOINT LeftWrist
							{
OFFSET 0 -3.519960 0.000000
CHANNELS 3 Zrotation Xrotation Yrotation
								JOINT lhand
								{
									OFFSET 0 0 0
CHANNELS 3 Zrotation Xrotation Yrotation
									JOINT LFingers
									{
OFFSET 0 -0.652380 0.000000
CHANNELS 3 Zrotation Xrotation Yrotation
										End Site
										{
OFFSET 0 -0.525960 0.000000
										}
									}
								}
								JOINT LThumb
								{
OFFSET 0 0.000000 0.000000
CHANNELS 3 Zrotation Xrotation Yrotation
									End Site
									{
OFFSET 0 -0.533990 0.533990
									}
								}
							}
						}
					}
				}
				JOINT RightCollar
				{
					OFFSET 0 0 0
					CHANNELS 3 Zrotation Yrotation Xrotation
					JOINT RightShoulder
					{
						OFFSET -2.96983 1.42602 -0.37449
CHANNELS 3 Zrotation Xrotation Yrotation
						JOINT RightElbow
						{
OFFSET 0 -5.408670 0.000000
CHANNELS 3 Zrotation Xrotation Yrotation
							JOINT RightWrist
							{
OFFSET 0 -3.129640 0.000000
CHANNELS 3 Zrotation Xrotation Yrotation
								JOINT rhand
								{
									OFFSET 0 0 0
CHANNELS 3 Zrotation Xrotation Yrotation
									JOINT RFingers
									{
OFFSET 0 -0.832710 0.000000
CHANNELS 3 Zrotation Xrotation Yrotation
										End Site
										{
OFFSET 0 -0.671350 0.000000
										}
									}
								}
								JOINT RThumb
								{
OFFSET 0 0.000000 0.000000
CHANNELS 3 Zrotation Xrotation Yrotation
									End Site
									{
OFFSET 0 -0.681600 0.681600
									}
								}
							}
						}
					}
				}
			}
		}
	}
}
MOTION
Frames: 8
Frame Time: 0.008333333333333333
-1.743672 16.576667 0.218556 -183.288888 -33.677071 169.347481 0.000000 0.000000 0.000000 -26.890790 -2.736759 -12.885738 8.043084 16.149945 52.716278 1.102446 -15.541317 -20.287969 0.011255 -0.684416 -1.880799 0.000000 0.000000 0.000000 14.210454 8.729042 -15.041409 -9.926671 -17.368029 59.242388 -2.194986 3.995458 -27.072708 -0.071219 1.716845 -4.723924 -4.761185 -3.122395 22.264882 1.458360 -5.388288 0.520160 6.044442 -2.299782 -11.311050 -5.719761 -9.337193 -6.880905 -0.332978 -11.956622 6.346258 0.206790 -6.093304 3.627606 0.000000 0.000000 0.000000 -55.098414 -70.222995 -106.485696 65.365074 -57.577882 38.839018 17.462321 -32.005690 -47.294791 0.000000 0.000000 0.000000 -7.125000 0.000000 0.000000 -42.986279 75.157795 31.794005 0.000000 0.000000 0.000000 -77.993257 -64.638115 -17.997803 -105.571945 -59.061799 -73.443042 10.352200 29.279154 11.722200 0.000000 0.000000 0.000000 7.125000 0.000000 0.000000 31.935500 39.504200 4.927100
-1.744326 16.527642 0.167972 -182.866364 -33.470367 169.008157 0.000000 0.000000 0.000000 -26.382508 -2.679529 -13.146464 8.298231 16.333339 53.628411 1.154867 -15.620995 -20.681355 0.007484 -0.528117 -1.451211 0.000000 0.000000 0.000000 14.779997 8.679997 -15.159462 -10.127282 -17.480279 59.912201 -2.232242 4.051448 -27.302803 -0.081907 1.817381 -5.002123 -4.440325 -3.093444 22.270793 1.492742 -5.261443 0.458567 5.868101 -2.248165 -11.425490 -5.725074 -9.363595 -6.463656 -0.253804 -12.024897 6.117941 0.258422 -6.122395 3.475117 0.000000 0.000000 0.000000 -56.031407 -70.585218 -107.159411 65.459542 -57.597422 38.918721 15.713606 -33.915989 -47.059994 0.000000 0.000000 0.000000 -7.125000 0.000000 0.000000 -44.006160 74.341714 31.918571 0.000000 0.000000 0.000000 -79.354669 -64.663820 -19.297732 -104.632158 -59.174978 -72.636677 10.352200 29.685059 11.722200 0.000000 0.000000 0.000000 7.125000 0.000000 0.000000 31.935500 39.504200 4.927100
-1.744278 16.470960 0.122689 -182.668875 -33.302279 168.801319 0.000000 0.000000 0.000000 -26.115102 -2.678517 -13.382160 8.555456 16.512370 54.538623 1.201634 -15.711228 -21.033105 0.002487 -0.101622 -0.279301 0.000000 0.000000 0.000000 15.062260 8.590718 -15.466916 -10.350901 -17.602037 60.654326 -2.229500 4.175669 -27.263497 -0.102880 2.041274 -5.620565 -4.235397 -3.039954 22.366550 1.445144 -5.143283 0.366582 5.677925 -2.190777 -11.621071 -5.664899 -9.358547 -6.200497 -0.179692 -12.044588 5.961615 0.290500 -6.126177 3.371636 0.000000 0.000000 0.000000 -57.098483 -70.890886 -108.029481 65.598352 -57.625933 39.035964 14.538836 -35.529254 -46.945777 0.000000 0.000000 0.000000 -7.125000 0.000000 0.000000 -44.794112 73.827314 32.096838 0.000000 0.000000 0.000000 -80.664027 -64.553120 -20.536611 -104.086725 -59.236474 -72.168148 10.352200 29.735433 11.722200 0.000000 0.000000 0.000000 7.125000 0.000000 0.000000 31.935500 39.504200 4.927100
-1.741957 16.418229 0.068532 -182.647194 -33.418355 168.596583 0.000000 0.000000 0.000000 -26.019565 -2.762805 -13.350331 8.801046 16.677461 55.398616 1.231647 -15.944303 -21.309426 0.009963 0.552398 1.518163 0.000000 0.000000 0.000000 15.177587 8.334703 -15.636916 -10.574865 -17.720390 61.392694 -2.237931 4.164051 -27.319050 -0.058305 1.553179 -4.272261 -4.293634 -2.985475 22.482694 1.402428 -5.095928 0.352955 5.660140 -2.161438 -11.706215 -5.610555 -9.371032 -6.111533 -0.147400 -12.072651 5.899093 0.297252 -6.136613 3.332011 0.000000 0.000000 0.000000 -58.606193 -71.170682 -109.301614 65.837943 -57.674761 39.238447 13.452946 -37.126131 -47.449388 0.000000 0.000000 0.000000 -7.125000 0.000000 0.000000 -47.209768 73.737141 33.919378 0.000000 0.000000 0.000000 -82.259378 -64.301852 -22.051822 -103.531764 -59.296340 -71.691120 10.352200 30.032190 11.722200 0.000000 0.000000 0.000000 7.125000 0.000000 0.000000 31.935500 39.504200 4.927100
-1.738514 16.366347 0.012301 -182.318205 -33.379753 168.215855 0.000000 0.000000 0.000000 -25.578633 -2.724103 -13.399639 9.061231 16.846677 56.301168 1.247318 -16.210973 -21.497599 0.041955 1.311970 3.607773 0.000000 0.000000 0.000000 15.658273 8.271952 -15.656541 -10.796179 -17.833775 62.117869 -2.283662 4.110276 -27.618407 -0.084611 1.864743 -5.132246 -4.219525 -2.874469 22.419211 1.519590 -4.921934 0.492989 5.683757 -2.097630 -11.526331 -5.690388 -9.419330 -6.198624 -0.049225 -12.130794 6.020717 0.328560 -6.164486 3.406416 0.000000 0.000000 0.000000 -60.636496 -71.509806 -111.061882 66.173890 -57.742269 39.522370 12.428363 -38.986143 -47.491590 0.000000 0.000000 0.000000 -7.125000 0.000000 0.000000 -48.250669 73.384027 34.420600 0.000000 0.000000 0.000000 -84.364610 -64.023403 -24.006633 -102.901286 -59.361647 -71.148875 10.352200 30.599728 11.722200 0.000000 0.000000 0.000000 7.125000 0.000000 0.000000 31.935500 39.504200 4.927100
-1.733428 16.317668 -0.048365 -181.849584 -33.319632 167.764489 0.000000 0.000000 0.000000 -24.964885 -2.626836 -13.533959 9.332504 17.016961 57.232961 1.269478 -16.460723 -21.723554 0.080189 1.826363 5.026078 0.000000 0.000000 0.000000 16.314978 8.163697 -15.562817 -11.006242 -17.938125 62.801729 -2.356498 3.881959 -28.116453 -0.152724 2.517997 -6.939434 -4.197820 -2.796729 22.130592 1.743366 -4.793608 0.781608 5.842326 -2.072837 -11.033916 -5.791741 -9.446848 -6.535741 -0.003452 -12.140148 6.292899 0.331285 -6.171660 3.578153 0.000000 0.000000 0.000000 -62.861629 -72.042363 -112.996034 66.617354 -57.829817 39.897631 11.491666 -41.053797 -47.606566 0.000000 0.000000 0.000000 -7.125000 0.000000 0.000000 -49.395884 73.108122 35.071312 0.000000 0.000000 0.000000 -86.965457 -63.921959 -26.330485 -102.579972 -59.393524 -70.872425 10.352200 30.726600 11.722200 0.000000 0.000000 0.000000 7.125000 0.000000 0.000000 31.935500 39.504200 4.927100
-1.733852 16.268538 -0.098736 -181.754876 -33.420636 167.627427 0.000000 0.000000 0.000000 -24.780504 -2.697109 -13.772957 9.619312 17.189864 58.207926 1.301392 -16.736484 -22.020769 0.131339 2.330370 6.419727 0.000000 0.000000 0.000000 16.444592 7.853764 -15.702563 -11.224252 -18.042926 63.507536 -2.428612 4.038574 -28.533575 -0.153913 2.527832 -6.966831 -4.154980 -2.831795 22.217782 1.697816 -4.831285 0.677890 5.791629 -2.079925 -11.203074 -5.977812 -9.708739 -6.187079 -0.049081 -12.497766 6.177801 0.346022 -6.355857 3.492666 0.000000 0.000000 0.000000 -63.719359 -72.274164 -113.609296 66.843154 -57.873562 40.088734 11.202723 -42.842462 -47.894589 0.000000 0.000000 0.000000 -7.125000 0.000000 0.000000 -50.442925 73.168016 35.966602 0.000000 0.000000 0.000000 -88.037956 -63.835599 -27.228770 -102.235356 -59.426666 -70.575743 10.352200 30.937378 11.722200 0.000000 0.000000 0.000000 7.125000 0.000000 0.000000 31.935500 39.504200 4.927100
-1.731790 16.210562 -0.141503 -181.558389 -33.433366 167.423955 0.000000 0.000000 0.000000 -24.508445 -2.792732 -14.053346 9.922028 17.365134 59.226456 1.329384 -16.921680 -22.261423 0.186698 2.776551 7.657703 0.000000 0.000000 0.000000 16.679599 7.605511 -15.916787 -11.452691 -18.149272 64.242673 -2.492932 4.010713 -28.930857 -0.174608 2.690203 -7.417540 -3.924682 -2.855235 22.425351 1.590975 -4.812439 0.484857 5.564439 -2.058875 -11.569246 -5.794781 -9.744589 -5.667638 -0.106576 -12.598818 6.260066 0.319040 -6.408865 3.406403 0.000000 0.000000 0.000000 -63.937707 -72.345109 -113.735563 67.074401 -57.917794 40.284658 11.046703 -44.703087 -48.128319 0.000000 0.000000 0.000000 -7.125000 0.000000 0.000000 -51.231330 73.242591 36.674203 0.000000 0.000000 0.000000 -88.574277 -63.657152 -27.642967 -102.037465 -59.445291 -70.405278 10.352200 31.110406 11.722200 0.000000 0.000000 0.000000 7.125000 0.000000 0.000000 31.935500 39.504200 4.927100
